<?xml version="1.0" standalone="no"?>
<!DOCTYPE svg PUBLIC "-//W3C//DTD SVG 20010904//EN"
 "http://www.w3.org/TR/2001/REC-SVG-20010904/DTD/svg10.dtd">
<svg version="1.0" xmlns="http://www.w3.org/2000/svg"
 width="225.000000pt" height="225.000000pt" viewBox="0 0 225.000000 225.000000"
 preserveAspectRatio="xMidYMid meet">

<g transform="translate(0.000000,225.000000) scale(0.100000,-0.100000)"
fill="#000000" stroke="none">
<path d="M1107 2203 c-3 -5 5 -8 18 -8 13 0 21 3 18 8 -2 4 -10 7 -18 7 -8 0
-16 -3 -18 -7z"/>
<path d="M1005 2094 c-112 -65 -132 -74 -119 -51 4 7 3 9 -2 4 -5 -5 -9 -13
-9 -17 0 -9 -133 -92 -207 -131 -20 -10 -45 -16 -55 -13 -13 4 -15 3 -5 -4 10
-7 -8 -22 -70 -58 -45 -27 -91 -52 -100 -56 -9 -4 -35 -19 -58 -33 -84 -53
-131 -76 -142 -69 -6 4 -8 3 -4 -4 3 -6 2 -13 -4 -17 -7 -4 -10 -184 -10 -525
l0 -520 37 -20 c21 -11 56 -31 78 -45 22 -13 54 -31 70 -38 17 -8 56 -30 87
-50 31 -21 59 -37 62 -37 16 0 105 -63 100 -71 -5 -8 9 -13 29 -10 9 1 24 -7
268 -148 l177 -101 76 45 c42 24 81 43 88 41 7 -1 9 -1 5 2 -5 2 10 15 32 29
23 13 46 21 51 18 6 -4 9 -1 8 5 -4 16 217 141 236 134 9 -3 13 -10 10 -15 -3
-5 0 -9 5 -9 16 0 13 18 -5 28 -12 7 6 21 84 65 105 60 118 65 106 45 -4 -8
-3 -10 2 -5 5 5 9 14 9 20 0 7 8 11 18 11 9 -1 15 2 12 6 -7 11 22 20 43 14
13 -4 14 -4 4 4 -10 7 3 19 52 46 l66 37 2 519 3 520 -49 26 c-37 20 -45 29
-35 36 11 7 9 8 -4 4 -12 -4 -44 9 -87 34 -38 22 -72 40 -76 40 -4 0 -15 6
-23 14 -9 8 -52 34 -96 58 -76 43 -129 73 -267 155 -35 20 -92 52 -127 71 -48
26 -60 37 -50 44 11 8 10 9 -4 4 -9 -3 -33 3 -52 14 -20 11 -39 20 -43 19 -4
0 -56 -30 -117 -65z m380 -231 c19 -9 36 -24 36 -32 2 -17 2 -62 0 -73 -1 -3
-17 -16 -36 -28 l-36 -22 -39 26 c-35 23 -38 29 -37 66 2 33 8 44 32 59 38 24
37 24 80 4z m-465 -13 c27 -27 29 -123 3 -119 -10 2 -28 -1 -41 -5 -25 -8 -62
15 -62 40 0 22 30 44 60 44 23 0 28 4 23 16 -3 9 -16 15 -32 14 -42 -3 -47 0
-27 15 27 20 52 19 76 -5z m294 14 c26 -10 18 -24 -14 -24 -40 0 -38 -16 5
-34 40 -17 46 -43 16 -70 -14 -13 -28 -16 -50 -11 -44 9 -40 32 4 27 22 -3 35
0 35 7 0 6 -16 19 -35 28 -65 31 -29 103 39 77z m-228 -44 c8 -47 19 -45 28 6
10 51 38 42 52 -16 l11 -44 11 47 c8 30 18 47 27 47 19 0 18 -12 -4 -75 -21
-58 -47 -71 -56 -28 -13 55 -18 58 -28 16 -14 -62 -39 -58 -60 10 -21 66 -21
77 -2 77 9 0 17 -14 21 -40z m212 -137 c-28 -7 -21 -31 10 -35 24 -3 27 -7 30
-45 2 -26 -1 -43 -7 -43 -6 0 -11 16 -11 35 0 28 -4 35 -20 35 -16 0 -20 -7
-20 -35 0 -19 -4 -35 -8 -35 -5 0 -8 10 -7 23 1 12 -2 30 -7 41 -7 13 -6 21 2
26 6 4 11 10 11 14 -3 21 1 26 22 25 16 -1 18 -2 5 -6z m232 -57 c0 -61 -1
-64 -26 -69 -38 -7 -65 23 -55 60 5 21 14 29 34 31 19 2 27 9 27 23 0 10 5 19
10 19 6 0 10 -28 10 -64z m-290 50 c0 -3 -4 -8 -10 -11 -5 -3 -10 -1 -10 4 0
6 5 11 10 11 6 0 10 -2 10 -4z m100 -6 c0 -5 -4 -10 -10 -10 -5 0 -10 5 -10
10 0 6 5 10 10 10 6 0 10 -4 10 -10z m-152 -17 c12 -12 13 -18 4 -21 -19 -6
-15 -60 6 -66 10 -3 7 -4 -8 -3 -21 2 -26 9 -31 42 -6 37 -3 65 8 65 2 0 12
-8 21 -17z m-198 -13 c0 -6 -6 -10 -12 -9 -32 4 -39 -2 -36 -28 2 -19 10 -29
28 -33 17 -4 21 -8 12 -14 -16 -10 -62 19 -62 40 0 29 21 54 45 54 14 0 25 -5
25 -10z m78 -2 c21 -21 13 -38 -18 -38 -20 0 -30 -5 -30 -15 0 -10 10 -15 27
-15 21 0 24 -3 15 -12 -9 -9 -18 -9 -37 0 -25 12 -32 41 -19 76 7 19 45 21 62
4z m72 2 c0 -5 -7 -10 -15 -10 -10 0 -15 -11 -15 -35 0 -19 -4 -35 -10 -35 -5
0 -10 20 -10 45 0 41 2 45 25 45 14 0 25 -4 25 -10z m96 -41 c0 -21 -3 -39 -8
-39 -4 0 -8 21 -8 47 0 55 15 49 16 -8z m192 24 c3 -20 -1 -23 -28 -23 -40 0
-36 -23 6 -30 24 -5 26 -7 11 -13 -31 -12 -57 10 -57 47 0 40 7 48 40 44 17
-2 26 -10 28 -25z m75 -170 c-149 -2 -397 -2 -550 0 -153 1 -30 2 272 2 303 0
428 -1 278 -2z m-158 -113 c0 -8 -10 -16 -22 -18 -22 -3 -32 16 -16 32 12 11
38 2 38 -14z m-517 -16 c3 -18 -1 -20 -28 -16 -39 6 -38 -9 3 -28 43 -20 49
-62 13 -85 -34 -22 -80 -16 -84 11 -3 18 1 20 28 16 18 -2 30 0 30 7 0 6 -5
11 -10 11 -14 0 -60 46 -60 60 0 5 9 19 21 31 27 27 83 23 87 -7z m212 -39 c0
-37 4 -65 10 -65 13 0 13 -27 0 -35 -6 -3 -19 -3 -30 0 -18 6 -20 15 -20 86 0
72 2 79 20 79 18 0 20 -7 20 -65z m250 -6 c0 -5 -7 -9 -15 -9 -9 0 -15 -9 -15
-25 0 -16 6 -25 15 -25 20 0 19 -26 -1 -34 -24 -9 -52 2 -58 22 -17 63 -16 89
5 111 l21 22 24 -26 c13 -14 24 -30 24 -36z m-335 17 c26 -19 26 -81 0 -101
-27 -20 -48 -19 -76 3 -63 52 10 146 76 98z m163 -34 c4 -57 22 -54 22 4 0 41
2 45 23 42 19 -3 22 -10 25 -59 l3 -56 -48 -6 c-27 -3 -54 -1 -60 5 -14 11
-18 100 -6 112 19 18 38 -1 41 -42z m230 -15 c3 -55 2 -57 -23 -57 -24 0 -25
3 -25 53 0 59 3 66 28 63 13 -2 18 -15 20 -59z m117 49 c26 -19 26 -81 0 -101
-43 -32 -99 -1 -97 54 1 53 54 78 97 47z m143 1 c7 -5 12 -29 12 -58 0 -47 -2
-50 -22 -47 -19 2 -24 10 -26 41 -4 50 -22 48 -22 -3 0 -33 -3 -40 -20 -40
-18 0 -20 7 -20 59 l0 58 43 -1 c23 -1 48 -5 55 -9z m106 7 c24 -9 20 -37 -4
-31 -11 3 -20 2 -20 -2 0 -3 9 -12 20 -19 44 -27 7 -81 -46 -68 -34 9 -31 36
4 36 l27 0 -25 13 c-60 30 -20 95 44 71z m-424 -183 c0 -24 -25 -34 -40 -16
-15 18 -5 35 21 35 12 0 19 -7 19 -19z m-140 -17 c0 -21 3 -24 20 -19 12 4 27
1 35 -5 20 -17 20 -106 1 -113 -20 -8 -26 2 -26 45 0 27 -4 38 -15 38 -11 0
-15 -11 -15 -40 0 -35 -3 -40 -22 -40 -24 0 -24 -6 -19 143 1 10 9 17 21 17
15 0 20 -7 20 -26z m-286 -55 c14 -38 26 -72 26 -73 0 -2 -9 -6 -20 -9 -13 -3
-24 1 -30 14 -12 22 -45 25 -53 5 -3 -7 -15 -16 -26 -19 -27 -7 -27 7 1 89 20
57 26 64 49 64 24 0 29 -8 53 -71z m496 46 c0 -8 7 -15 15 -15 8 0 15 -7 15
-15 0 -8 -7 -15 -15 -15 -9 0 -15 -9 -15 -25 0 -16 6 -25 15 -25 19 0 20 -29
1 -36 -28 -11 -56 15 -56 51 0 19 -4 35 -10 35 -5 0 -10 7 -10 15 0 8 5 15 10
15 6 0 10 7 10 15 0 8 9 15 20 15 11 0 20 -7 20 -15z m325 5 c-3 -6 1 -13 9
-16 20 -8 21 -34 1 -34 -9 0 -15 -9 -15 -25 0 -16 6 -25 15 -25 20 0 19 -26
-1 -34 -28 -11 -54 12 -54 48 0 41 -3 44 -40 38 -24 -3 -30 -9 -30 -28 0 -19
5 -24 25 -24 30 0 34 -26 6 -35 -52 -16 -97 41 -71 90 14 27 41 36 81 28 22
-4 29 -2 29 11 0 11 9 16 26 16 14 0 23 -4 19 -10z m-722 -19 c13 8 19 6 23
-6 7 -17 -1 -30 -19 -30 -7 0 -13 -16 -15 -35 -4 -37 -17 -51 -39 -43 -8 3
-13 23 -13 57 0 59 5 69 29 56 10 -5 24 -4 34 1z m111 3 c25 -10 19 -34 -9
-34 -20 0 -25 -5 -25 -25 0 -20 5 -25 25 -25 15 0 25 -6 25 -14 0 -36 -83 -25
-95 13 -17 54 30 104 79 85z m420 -10 c9 -8 16 -26 16 -40 0 -20 -5 -24 -32
-26 l-33 -1 33 -4 c40 -5 42 -29 3 -38 -54 -12 -90 27 -77 81 10 39 63 55 90
28z m-204 -49 c0 -52 -1 -55 -25 -55 -24 0 -25 2 -24 55 2 51 4 55 26 55 21 0
23 -4 23 -55z m213 -182 c-149 -2 -397 -2 -550 0 -153 1 -30 2 272 2 303 0
428 -1 278 -2z m-700 -155 c19 -48 15 -58 -16 -39 -15 10 -22 10 -25 2 -2 -6
-10 -11 -19 -11 -10 0 -12 6 -7 23 25 81 43 88 67 25z m112 32 c3 -6 -4 -10
-17 -11 l-23 0 23 -11 c30 -15 26 -52 -7 -56 -13 -2 -28 1 -34 7 -8 8 -4 11
13 11 l24 0 -22 16 c-24 17 -29 40 -9 47 21 9 46 7 52 -3z m105 0 c0 -5 -8
-10 -17 -10 -15 0 -14 -4 6 -19 32 -24 22 -51 -19 -51 -16 0 -30 5 -30 10 0 6
9 10 21 10 21 0 21 0 -2 18 -28 24 -20 52 16 52 14 0 25 -4 25 -10z m132 -16
c14 -31 1 -57 -31 -62 -28 -4 -51 14 -51 42 0 50 62 65 82 20z m118 17 c0 -5
-9 -11 -20 -14 -11 -3 -20 -13 -20 -22 0 -9 9 -19 20 -22 30 -8 24 -25 -6 -21
-37 4 -51 29 -36 62 8 18 19 26 37 26 14 0 25 -4 25 -9z m70 -36 c0 -33 -4
-45 -15 -45 -11 0 -15 12 -15 45 0 33 4 45 15 45 11 0 15 -12 15 -45z m113 3
c19 -48 15 -58 -16 -39 -15 10 -22 10 -25 2 -2 -6 -10 -11 -19 -11 -10 0 -12
6 -7 23 25 81 43 88 67 25z m127 33 c0 -5 -7 -11 -15 -15 -9 -3 -15 -18 -15
-36 0 -20 -5 -30 -15 -30 -10 0 -15 11 -15 35 0 19 -4 35 -10 35 -5 0 -10 5
-10 10 0 6 18 10 40 10 22 0 40 -4 40 -9z m100 -1 c0 -5 -10 -10 -22 -11 l-23
0 23 -9 c12 -5 22 -12 22 -15 0 -3 -10 -10 -22 -15 l-23 -9 23 0 c12 -1 22 -6
22 -12 0 -6 -14 -9 -32 -7 -30 3 -33 6 -34 38 -1 19 0 38 3 43 6 11 63 9 63
-3z"/>
<path d="M867 1783 c-14 -13 -6 -33 12 -33 19 0 35 23 24 34 -8 8 -28 8 -36
-1z"/>
<path d="M1371 1626 c-18 -22 -9 -51 17 -54 21 -3 23 0 20 29 -3 37 -19 47
-37 25z"/>
<path d="M927 1634 c-13 -13 -7 -24 14 -24 11 0 19 5 17 12 -5 14 -22 21 -31
12z"/>
<path d="M1283 1633 c-22 -8 -14 -23 13 -23 15 0 24 5 22 12 -5 14 -18 18 -35
11z"/>
<path d="M804 1255 c-3 -8 -3 -19 1 -25 11 -18 25 -11 25 15 0 27 -17 34 -26
10z"/>
<path d="M1314 1255 c-3 -8 -3 -19 1 -25 11 -18 25 -11 25 15 0 27 -17 34 -26
10z"/>
<path d="M707 1056 c-4 -10 -5 -21 -2 -24 9 -9 17 6 13 25 -3 17 -4 17 -11 -1z"/>
<path d="M1345 1050 c-3 -5 1 -10 10 -10 9 0 13 5 10 10 -3 6 -8 10 -10 10 -2
0 -7 -4 -10 -10z"/>
<path d="M1000 686 c0 -17 5 -26 16 -26 10 0 14 7 12 22 -5 32 -28 35 -28 4z"/>
<path d="M980 2120 c0 -6 7 -10 15 -10 8 0 15 2 15 4 0 2 -7 6 -15 10 -8 3
-15 1 -15 -4z"/>
<path d="M1278 2113 c6 -2 9 -10 6 -15 -4 -7 -2 -8 5 -4 13 9 5 26 -12 25 -9
0 -8 -2 1 -6z"/>
<path d="M1400 2040 c-9 -6 -10 -10 -3 -10 6 0 15 5 18 10 8 12 4 12 -15 0z"/>
<path d="M1643 1895 c0 -8 4 -12 9 -9 4 3 8 9 8 15 0 5 -4 9 -8 9 -5 0 -9 -7
-9 -15z"/>
<path d="M1780 1810 c0 -5 5 -10 11 -10 5 0 7 5 4 10 -3 6 -8 10 -11 10 -2 0
-4 -4 -4 -10z"/>
<path d="M430 1800 c8 -5 20 -10 25 -10 6 0 3 5 -5 10 -8 5 -19 10 -25 10 -5
0 -3 -5 5 -10z"/>
<path d="M1806 1792 c-2 -4 4 -8 14 -8 10 0 16 4 14 8 -3 4 -9 8 -14 8 -5 0
-11 -4 -14 -8z"/>
<path d="M1850 1786 c0 -2 7 -7 16 -10 8 -3 12 -2 9 4 -6 10 -25 14 -25 6z"/>
<path d="M340 1756 c0 -2 7 -7 16 -10 8 -3 12 -2 9 4 -6 10 -25 14 -25 6z"/>
<path d="M307 1729 c7 -7 15 -10 18 -7 3 3 -2 9 -12 12 -14 6 -15 5 -6 -5z"/>
<path d="M270 1720 c-9 -6 -10 -10 -3 -10 6 0 15 5 18 10 8 12 4 12 -15 0z"/>
<path d="M2063 1085 c0 -22 2 -30 4 -17 2 12 2 30 0 40 -3 9 -5 -1 -4 -23z"/>
<path d="M186 587 c3 -10 9 -15 12 -12 3 3 0 11 -7 18 -10 9 -11 8 -5 -6z"/>
<path d="M345 490 c3 -5 8 -10 11 -10 2 0 4 5 4 10 0 6 -5 10 -11 10 -5 0 -7
-4 -4 -10z"/>
<path d="M1796 452 c-3 -5 1 -9 9 -9 8 0 12 4 9 9 -3 4 -7 8 -9 8 -2 0 -6 -4
-9 -8z"/>
<path d="M430 440 c38 -26 47 -29 47 -15 0 7 -6 11 -13 8 -6 -2 -15 0 -19 6
-3 6 -12 11 -18 11 -7 0 -6 -4 3 -10z"/>
<path d="M1756 431 c-19 -7 -19 -8 0 -13 13 -3 21 0 21 8 0 8 -1 14 -1 13 -1
0 -10 -4 -20 -8z"/>
<path d="M1595 330 c3 -5 11 -10 16 -10 6 0 7 5 4 10 -3 6 -11 10 -16 10 -6 0
-7 -4 -4 -10z"/>
<path d="M1567 309 c7 -7 15 -10 18 -7 3 3 -2 9 -12 12 -14 6 -15 5 -6 -5z"/>
<path d="M701 296 c-9 -10 -8 -15 2 -19 8 -3 13 3 13 14 0 23 0 23 -15 5z"/>
<path d="M1526 287 c3 -10 9 -15 12 -12 3 3 0 11 -7 18 -10 9 -11 8 -5 -6z"/>
<path d="M750 256 c0 -2 7 -7 16 -10 8 -3 12 -2 9 4 -6 10 -25 14 -25 6z"/>
<path d="M1465 250 c3 -6 1 -10 -6 -10 -7 0 -10 -3 -6 -6 3 -3 13 -2 22 4 16
8 16 9 1 15 -10 4 -15 3 -11 -3z"/>
<path d="M810 236 c0 -2 7 -7 16 -10 8 -3 12 -2 9 4 -6 10 -25 14 -25 6z"/>
<path d="M934 148 c10 -6 22 -6 26 -2 5 5 -3 10 -18 11 -22 1 -24 0 -8 -9z"/>
<path d="M988 133 c7 -3 16 -2 19 1 4 3 -2 6 -13 5 -11 0 -14 -3 -6 -6z"/>
<path d="M1224 112 c3 -5 0 -13 -6 -15 -9 -4 -10 -6 -1 -6 17 -1 25 16 12 25
-7 4 -9 3 -5 -4z"/>
<path d="M1011 107 c2 -1 13 -9 24 -17 19 -14 19 -14 6 3 -7 9 -18 17 -24 17
-6 0 -8 -1 -6 -3z"/>
</g>
</svg>
